<svg id="Capa_1" enable-background="new 0 0 512.002 512.002" height="512" viewBox="0 0 512.002 512.002" width="512" xmlns="http://www.w3.org/2000/svg"><g><path d="m379.671 137.25h-227.197c-20.374 0-36.606 17.174-35.449 37.521l16.46 289.507c1.521 26.761 23.71 47.724 50.514 47.724h164.145c26.805 0 48.993-20.963 50.515-47.724l16.46-289.507c1.159-20.342-15.068-37.521-35.448-37.521zm15.481 36.387-16.461 289.507c-.92 16.183-14.337 28.858-30.546 28.858h-164.145c-16.209 0-29.626-12.676-30.546-28.858l-16.46-289.507c-.504-8.87 6.527-16.387 15.481-16.387h227.197c8.903 0 15.988 7.465 15.48 16.387z"/><path d="m414.952 68.866-2.923-17.125c-3.065-17.957-20.078-30.018-38.043-26.95l-72.776 12.421-2.915-17.075c-2.247-13.176-14.732-22.04-27.931-19.787l-56.466 9.638c-13.184 2.248-22.039 14.742-19.788 27.931l2.915 17.076-72.775 12.421c-17.96 3.065-30.016 20.081-26.951 38.044l2.923 17.125c.932 5.457 6.114 9.103 11.54 8.175l295.014-50.354c5.446-.929 9.106-6.096 8.176-11.54zm-201.125-34.313c-.39-2.286 1.146-4.46 3.437-4.851 5.857-1 49.393-8.43 56.468-9.638 2.288-.392 4.459 1.148 4.85 3.437l2.915 17.075c-6.625 1.131-58.477 9.981-64.755 11.053zm-95.571 74.809-1.24-7.268c-1.206-7.064 3.535-13.757 10.601-14.964 267.789-45.706 250.226-42.813 251.946-42.813 6.137 0 11.664 4.411 12.753 10.789l1.24 7.268z"/><path d="m266.073 175.217c-15.654 0-28.39 12.736-28.39 28.391v14.395c0 5.522 4.477 10 10 10s10-4.478 10-10v-14.395c0-4.627 3.764-8.391 8.39-8.391 4.627 0 8.391 3.764 8.391 8.391v238.479c0 4.626-3.764 8.39-8.391 8.39-4.626 0-8.39-3.764-8.39-8.39v-144.085c0-5.522-4.478-10-10-10s-10 4.478-10 10v144.084c0 15.654 12.736 28.39 28.39 28.39s28.391-12.735 28.391-28.39v-238.478c-.001-15.655-12.737-28.391-28.391-28.391z"/><path d="m210.726 202.223c-.866-15.673-14.276-27.664-29.912-26.78-15.666.863-27.647 14.241-26.782 29.911l13.146 238.116c1.393 25.223 32.714 36.119 49.498 17.372 5.059-5.649 7.614-12.931 7.196-20.503zm-14.737 248.06c-4.608.217-8.585-3.296-8.84-7.916l-13.146-238.115c-.256-4.63 3.283-8.583 7.915-8.84.159-.009.316-.013.474-.013 4.412 0 8.118 3.447 8.366 7.927l13.147 238.116c.254 4.629-3.284 8.584-7.916 8.841z"/><path d="m351.331 175.443c-15.644-.856-29.049 11.149-29.912 26.781l-13.146 238.116c-.418 7.571 2.138 14.853 7.195 20.502 16.802 18.768 48.109 7.77 49.498-17.373l13.146-238.115c.866-15.667-11.113-29.048-26.781-29.911zm6.813 28.808-13.146 238.115c-.256 4.62-4.251 8.126-8.841 7.916-4.631-.257-8.17-4.21-7.915-8.84l13.146-238.116c.247-4.463 3.956-7.928 8.372-7.928 4.822.001 8.649 4.038 8.384 8.853z"/><path d="m247.682 268.028c5.523 0 10-4.478 10-10v-.025c0-5.522-4.477-9.987-10-9.987s-10 4.49-10 10.013 4.478 9.999 10 9.999z"/></g></svg>